{
    "asset" : {
        "generator" : "Khronos glTF Blender I/O v1.7.33",
        "version" : "2.0"
    },
    "scene" : 0,
    "scenes" : [
        {
            "name" : "Scene",
            "nodes" : [
                0,
                1,
                2,
                3,
                4,
                5,
                6
            ]
        }
    ],
    "nodes" : [
        {
            "mesh" : 0,
            "name" : "Cube",
            "translation" : [
                -0.8807342052459717,
                0.5771232843399048,
                0.028581520542502403
            ]
        },
        {
            "mesh" : 1,
            "name" : "Cube.001",
            "translation" : [
                -1.7339820861816406,
                0.5141348838806152,
                0.01774643361568451
            ]
        },
        {
            "mesh" : 2,
            "name" : "Cube.002",
            "translation" : [
                -0.8813753128051758,
                0.5110756158828735,
                -0.8365777730941772
            ]
        },
        {
            "mesh" : 3,
            "name" : "Cube.003",
            "translation" : [
                0.014149785041809082,
                0.5110756158828735,
                0.01156698539853096
            ]
        },
        {
            "mesh" : 4,
            "name" : "Cube.004",
            "translation" : [
                -0.8763445019721985,
                0.5110756158828735,
                0.9065771698951721
            ]
        },
        {
            "mesh" : 5,
            "name" : "Cube.005",
            "translation" : [
                -0.8960599303245544,
                1.0158562660217285,
                0.007923625409603119
            ]
        },
        {
            "mesh" : 6,
            "name" : "Cube.006",
            "rotation" : [
                0,
                -0.36168184876441956,
                0,
                0.9323017001152039
            ],
            "translation" : [
                -0.8676314353942871,
                1.4871134757995605,
                -0.02318871021270752
            ]
        }
    ],
    "materials" : [
        {
            "doubleSided" : true,
            "name" : "Flat White",
            "pbrMetallicRoughness" : {
                "baseColorFactor" : [
                    0.800000011920929,
                    0.800000011920929,
                    0.800000011920929,
                    1
                ],
                "metallicFactor" : 0,
                "roughnessFactor" : 0.9409449100494385
            }
        }
    ],
    "meshes" : [
        {
            "name" : "Cube",
            "primitives" : [
                {
                    "attributes" : {
                        "POSITION" : 0,
                        "NORMAL" : 1,
                        "TEXCOORD_0" : 2
                    },
                    "indices" : 3,
                    "material" : 0
                }
            ]
        },
        {
            "name" : "Cube.001",
            "primitives" : [
                {
                    "attributes" : {
                        "POSITION" : 4,
                        "NORMAL" : 5,
                        "TEXCOORD_0" : 6
                    },
                    "indices" : 7,
                    "material" : 0
                }
            ]
        },
        {
            "name" : "Cube.002",
            "primitives" : [
                {
                    "attributes" : {
                        "POSITION" : 8,
                        "NORMAL" : 9,
                        "TEXCOORD_0" : 10
                    },
                    "indices" : 7,
                    "material" : 0
                }
            ]
        },
        {
            "name" : "Cube.003",
            "primitives" : [
                {
                    "attributes" : {
                        "POSITION" : 11,
                        "NORMAL" : 12,
                        "TEXCOORD_0" : 13
                    },
                    "indices" : 7,
                    "material" : 0
                }
            ]
        },
        {
            "name" : "Cube.004",
            "primitives" : [
                {
                    "attributes" : {
                        "POSITION" : 14,
                        "NORMAL" : 15,
                        "TEXCOORD_0" : 16
                    },
                    "indices" : 7,
                    "material" : 0
                }
            ]
        },
        {
            "name" : "Cube.005",
            "primitives" : [
                {
                    "attributes" : {
                        "POSITION" : 17,
                        "NORMAL" : 18,
                        "TEXCOORD_0" : 19
                    },
                    "indices" : 20,
                    "material" : 0
                }
            ]
        },
        {
            "name" : "Cube.006",
            "primitives" : [
                {
                    "attributes" : {
                        "POSITION" : 21,
                        "NORMAL" : 22,
                        "TEXCOORD_0" : 23
                    },
                    "indices" : 24,
                    "material" : 0
                }
            ]
        }
    ],
    "accessors" : [
        {
            "bufferView" : 0,
            "componentType" : 5126,
            "count" : 82,
            "max" : [
                0.9995532035827637,
                0.09022432565689087,
                1.0029780864715576
            ],
            "min" : [
                -0.9854766130447388,
                -0.05427587032318115,
                -0.9813650846481323
            ],
            "type" : "VEC3"
        },
        {
            "bufferView" : 1,
            "componentType" : 5126,
            "count" : 82,
            "type" : "VEC3"
        },
        {
            "bufferView" : 2,
            "componentType" : 5126,
            "count" : 82,
            "type" : "VEC2"
        },
        {
            "bufferView" : 3,
            "componentType" : 5123,
            "count" : 132,
            "type" : "SCALAR"
        },
        {
            "bufferView" : 4,
            "componentType" : 5126,
            "count" : 39,
            "max" : [
                0.10241773724555969,
                0.10241774469614029,
                0.10241774469614029
            ],
            "min" : [
                -0.10241774469614029,
                -0.10241773724555969,
                -0.10241774469614029
            ],
            "type" : "VEC3"
        },
        {
            "bufferView" : 5,
            "componentType" : 5126,
            "count" : 39,
            "type" : "VEC3"
        },
        {
            "bufferView" : 6,
            "componentType" : 5126,
            "count" : 39,
            "type" : "VEC2"
        },
        {
            "bufferView" : 7,
            "componentType" : 5123,
            "count" : 144,
            "type" : "SCALAR"
        },
        {
            "bufferView" : 8,
            "componentType" : 5126,
            "count" : 39,
            "max" : [
                0.10241773724555969,
                0.10241774469614029,
                0.10241774469614029
            ],
            "min" : [
                -0.10241774469614029,
                -0.10241773724555969,
                -0.10241774469614029
            ],
            "type" : "VEC3"
        },
        {
            "bufferView" : 9,
            "componentType" : 5126,
            "count" : 39,
            "type" : "VEC3"
        },
        {
            "bufferView" : 10,
            "componentType" : 5126,
            "count" : 39,
            "type" : "VEC2"
        },
        {
            "bufferView" : 11,
            "componentType" : 5126,
            "count" : 39,
            "max" : [
                0.10241773724555969,
                0.10241774469614029,
                0.10241774469614029
            ],
            "min" : [
                -0.10241774469614029,
                -0.10241773724555969,
                -0.10241774469614029
            ],
            "type" : "VEC3"
        },
        {
            "bufferView" : 12,
            "componentType" : 5126,
            "count" : 39,
            "type" : "VEC3"
        },
        {
            "bufferView" : 13,
            "componentType" : 5126,
            "count" : 39,
            "type" : "VEC2"
        },
        {
            "bufferView" : 14,
            "componentType" : 5126,
            "count" : 39,
            "max" : [
                0.10241773724555969,
                0.10241774469614029,
                0.10241774469614029
            ],
            "min" : [
                -0.10241774469614029,
                -0.10241773724555969,
                -0.10241774469614029
            ],
            "type" : "VEC3"
        },
        {
            "bufferView" : 15,
            "componentType" : 5126,
            "count" : 39,
            "type" : "VEC3"
        },
        {
            "bufferView" : 16,
            "componentType" : 5126,
            "count" : 39,
            "type" : "VEC2"
        },
        {
            "bufferView" : 17,
            "componentType" : 5126,
            "count" : 175,
            "max" : [
                0.055658385157585144,
                0.40530139207839966,
                0.05274948105216026
            ],
            "min" : [
                -0.05565847456455231,
                -0.4053012728691101,
                -0.052749499678611755
            ],
            "type" : "VEC3"
        },
        {
            "bufferView" : 18,
            "componentType" : 5126,
            "count" : 175,
            "type" : "VEC3"
        },
        {
            "bufferView" : 19,
            "componentType" : 5126,
            "count" : 175,
            "type" : "VEC2"
        },
        {
            "bufferView" : 20,
            "componentType" : 5123,
            "count" : 564,
            "type" : "SCALAR"
        },
        {
            "bufferView" : 21,
            "componentType" : 5126,
            "count" : 187,
            "max" : [
                0.7519427537918091,
                1.2645546197891235,
                0.6327787637710571
            ],
            "min" : [
                -0.7670900225639343,
                -0.16279983520507812,
                -0.8379472494125366
            ],
            "type" : "VEC3"
        },
        {
            "bufferView" : 22,
            "componentType" : 5126,
            "count" : 187,
            "type" : "VEC3"
        },
        {
            "bufferView" : 23,
            "componentType" : 5126,
            "count" : 187,
            "type" : "VEC2"
        },
        {
            "bufferView" : 24,
            "componentType" : 5123,
            "count" : 708,
            "type" : "SCALAR"
        }
    ],
    "bufferViews" : [
        {
            "buffer" : 0,
            "byteLength" : 984,
            "byteOffset" : 0
        },
        {
            "buffer" : 0,
            "byteLength" : 984,
            "byteOffset" : 984
        },
        {
            "buffer" : 0,
            "byteLength" : 656,
            "byteOffset" : 1968
        },
        {
            "buffer" : 0,
            "byteLength" : 264,
            "byteOffset" : 2624
        },
        {
            "buffer" : 0,
            "byteLength" : 468,
            "byteOffset" : 2888
        },
        {
            "buffer" : 0,
            "byteLength" : 468,
            "byteOffset" : 3356
        },
        {
            "buffer" : 0,
            "byteLength" : 312,
            "byteOffset" : 3824
        },
        {
            "buffer" : 0,
            "byteLength" : 288,
            "byteOffset" : 4136
        },
        {
            "buffer" : 0,
            "byteLength" : 468,
            "byteOffset" : 4424
        },
        {
            "buffer" : 0,
            "byteLength" : 468,
            "byteOffset" : 4892
        },
        {
            "buffer" : 0,
            "byteLength" : 312,
            "byteOffset" : 5360
        },
        {
            "buffer" : 0,
            "byteLength" : 468,
            "byteOffset" : 5672
        },
        {
            "buffer" : 0,
            "byteLength" : 468,
            "byteOffset" : 6140
        },
        {
            "buffer" : 0,
            "byteLength" : 312,
            "byteOffset" : 6608
        },
        {
            "buffer" : 0,
            "byteLength" : 468,
            "byteOffset" : 6920
        },
        {
            "buffer" : 0,
            "byteLength" : 468,
            "byteOffset" : 7388
        },
        {
            "buffer" : 0,
            "byteLength" : 312,
            "byteOffset" : 7856
        },
        {
            "buffer" : 0,
            "byteLength" : 2100,
            "byteOffset" : 8168
        },
        {
            "buffer" : 0,
            "byteLength" : 2100,
            "byteOffset" : 10268
        },
        {
            "buffer" : 0,
            "byteLength" : 1400,
            "byteOffset" : 12368
        },
        {
            "buffer" : 0,
            "byteLength" : 1128,
            "byteOffset" : 13768
        },
        {
            "buffer" : 0,
            "byteLength" : 2244,
            "byteOffset" : 14896
        },
        {
            "buffer" : 0,
            "byteLength" : 2244,
            "byteOffset" : 17140
        },
        {
            "buffer" : 0,
            "byteLength" : 1496,
            "byteOffset" : 19384
        },
        {
            "buffer" : 0,
            "byteLength" : 1416,
            "byteOffset" : 20880
        }
    ],
    "buffers" : [
        {
            "byteLength" : 22296,
            "uri" : "data:application/octet-stream;base64,"
        }
    ]
}
