{
    "asset" : {
        "generator" : "Khronos glTF Blender I/O v1.7.33",
        "version" : "2.0"
    },
    "scene" : 0,
    "scenes" : [
        {
            "name" : "Scene",
            "nodes" : [
                0
            ]
        }
    ],
    "nodes" : [
        {
            "mesh" : 0,
            "name" : "Curve",
            "rotation" : [
                0.5,
                0.5,
                -0.5,
                0.4999999701976776
            ],
            "scale" : [
                4.755086898803711,
                4.755086898803711,
                4.755086898803711
            ],
            "translation" : [
                0.0044989511370658875,
                -0.015142470598220825,
                -0.008008480072021484
            ]
        }
    ],
    "materials" : [
        {
            "doubleSided" : true,
            "name" : "LinkedIn Blue",
            "pbrMetallicRoughness" : {
                "baseColorFactor" : [
                    0.0015861649299040437,
                    0.001237755292095244,
                    0.8000000715255737,
                    1
                ],
                "metallicFactor" : 0,
                "roughnessFactor" : 0.4000000059604645
            }
        }
    ],
    "meshes" : [
        {
            "name" : "Curve",
            "primitives" : [
                {
                    "attributes" : {
                        "POSITION" : 0,
                        "NORMAL" : 1,
                        "TEXCOORD_0" : 2
                    },
                    "indices" : 3,
                    "material" : 0
                }
            ]
        }
    ],
    "accessors" : [
        {
            "bufferView" : 0,
            "componentType" : 5126,
            "count" : 1704,
            "max" : [
                0.06368128210306168,
                0.015890222042798996,
                0.057863928377628326
            ],
            "min" : [
                -0.06275685876607895,
                -0.01634399965405464,
                -0.06846409291028976
            ],
            "type" : "VEC3"
        },
        {
            "bufferView" : 1,
            "componentType" : 5126,
            "count" : 1704,
            "type" : "VEC3"
        },
        {
            "bufferView" : 2,
            "componentType" : 5126,
            "count" : 1704,
            "type" : "VEC2"
        },
        {
            "bufferView" : 3,
            "componentType" : 5123,
            "count" : 2487,
            "type" : "SCALAR"
        }
    ],
    "bufferViews" : [
        {
            "buffer" : 0,
            "byteLength" : 20448,
            "byteOffset" : 0
        },
        {
            "buffer" : 0,
            "byteLength" : 20448,
            "byteOffset" : 20448
        },
        {
            "buffer" : 0,
            "byteLength" : 13632,
            "byteOffset" : 40896
        },
        {
            "buffer" : 0,
            "byteLength" : 4974,
            "byteOffset" : 54528
        }
    ],
    "buffers" : [
        {
            "byteLength" : 59504,
            "uri" : "data:application/octet-stream;base64,"
        }
    ]
}
