{
    "asset" : {
        "generator" : "Khronos glTF Blender I/O v1.7.33",
        "version" : "2.0"
    },
    "scene" : 0,
    "scenes" : [
        {
            "name" : "Scene",
            "nodes" : [
                0
            ]
        }
    ],
    "nodes" : [
        {
            "mesh" : 0,
            "name" : "ig-logo",
            "rotation" : [
                0.7071068286895752,
                0,
                0,
                0.7071068286895752
            ],
            "translation" : [
                -0.02833998203277588,
                0.5291048884391785,
                0.15578603744506836
            ]
        }
    ],
    "materials" : [
        {
            "doubleSided" : true,
            "name" : "insta-color",
            "pbrMetallicRoughness" : {
                "baseColorFactor" : [
                    0.6743214130401611,
                    0.185469850897789,
                    0.22411204874515533,
                    1
                ],
                "metallicFactor" : 0
            }
        }
    ],
    "meshes" : [
        {
            "name" : "Curve",
            "primitives" : [
                {
                    "attributes" : {
                        "POSITION" : 0,
                        "NORMAL" : 1,
                        "TEXCOORD_0" : 2
                    },
                    "indices" : 3,
                    "material" : 0
                }
            ]
        }
    ],
    "accessors" : [
        {
            "bufferView" : 0,
            "componentType" : 5126,
            "count" : 3452,
            "max" : [
                0.4087759256362915,
                0.15374207496643066,
                0.3995281457901001
            ],
            "min" : [
                -0.427750825881958,
                -0.15704327821731567,
                -0.43682193756103516
            ],
            "type" : "VEC3"
        },
        {
            "bufferView" : 1,
            "componentType" : 5126,
            "count" : 3452,
            "type" : "VEC3"
        },
        {
            "bufferView" : 2,
            "componentType" : 5126,
            "count" : 3452,
            "type" : "VEC2"
        },
        {
            "bufferView" : 3,
            "componentType" : 5123,
            "count" : 4890,
            "type" : "SCALAR"
        }
    ],
    "bufferViews" : [
        {
            "buffer" : 0,
            "byteLength" : 41424,
            "byteOffset" : 0
        },
        {
            "buffer" : 0,
            "byteLength" : 41424,
            "byteOffset" : 41424
        },
        {
            "buffer" : 0,
            "byteLength" : 27616,
            "byteOffset" : 82848
        },
        {
            "buffer" : 0,
            "byteLength" : 9780,
            "byteOffset" : 110464
        }
    ],
    "buffers" : [
        {
            "byteLength" : 120244,
            "uri" : "data:application/octet-stream;base64,"
        }
    ]
}
