{
    "asset" : {
        "generator" : "Khronos glTF Blender I/O v1.7.33",
        "version" : "2.0"
    },
    "scene" : 0,
    "scenes" : [
        {
            "name" : "Scene",
            "nodes" : [
                0,
                1,
                2
            ]
        }
    ],
    "nodes" : [
        {
            "mesh" : 0,
            "name" : "Plane.003",
            "rotation" : [
                -0.0025672910269349813,
                -0.7071021199226379,
                0.7071021795272827,
                -0.0025672910269349813
            ],
            "scale" : [
                0.7898597717285156,
                0.7898597121238708,
                0.7898597121238708
            ],
            "translation" : [
                -0.11827200651168823,
                1.7082023620605469,
                0.2628176510334015
            ]
        },
        {
            "mesh" : 1,
            "name" : "Monitor Back",
            "rotation" : [
                0.7071042060852051,
                -0.0019066247623413801,
                0.001906624878756702,
                0.7071042060852051
            ],
            "translation" : [
                -0.07448121905326843,
                1.701619029045105,
                0.25023889541625977
            ]
        },
        {
            "mesh" : 2,
            "name" : "Monitor Screen",
            "rotation" : [
                0.7071042060852051,
                -0.0019066247623413801,
                0.001906624878756702,
                0.7071042060852051
            ],
            "translation" : [
                -0.07448121905326843,
                1.701619029045105,
                0.25023889541625977
            ]
        }
    ],
    "materials" : [
        {
            "doubleSided" : true,
            "name" : "Flat White",
            "pbrMetallicRoughness" : {
                "baseColorFactor" : [
                    0.800000011920929,
                    0.800000011920929,
                    0.800000011920929,
                    1
                ],
                "metallicFactor" : 0,
                "roughnessFactor" : 0.4000000059604645
            }
        },
        {
            "doubleSided" : true,
            "name" : "Light Grey",
            "pbrMetallicRoughness" : {
                "baseColorFactor" : [
                    0.1733546108007431,
                    0.1733546108007431,
                    0.1733546108007431,
                    1
                ],
                "metallicFactor" : 0,
                "roughnessFactor" : 0.27559056878089905
            }
        }
    ],
    "meshes" : [
        {
            "name" : "Plane.012",
            "primitives" : [
                {
                    "attributes" : {
                        "POSITION" : 0,
                        "NORMAL" : 1
                    },
                    "indices" : 2,
                    "material" : 0
                }
            ]
        },
        {
            "name" : "Plane.003",
            "primitives" : [
                {
                    "attributes" : {
                        "POSITION" : 3,
                        "NORMAL" : 4,
                        "TEXCOORD_0" : 5
                    },
                    "indices" : 6,
                    "material" : 0
                }
            ]
        },
        {
            "name" : "Plane.004",
            "primitives" : [
                {
                    "attributes" : {
                        "POSITION" : 7,
                        "NORMAL" : 8,
                        "TEXCOORD_0" : 9
                    },
                    "indices" : 10,
                    "material" : 1
                }
            ]
        }
    ],
    "accessors" : [
        {
            "bufferView" : 0,
            "componentType" : 5126,
            "count" : 56,
            "max" : [
                0.7777593731880188,
                0.8093970417976379,
                1.1632612943649292
            ],
            "min" : [
                -0.9169467091560364,
                -0.08196685463190079,
                0.02864902839064598
            ],
            "type" : "VEC3"
        },
        {
            "bufferView" : 1,
            "componentType" : 5126,
            "count" : 56,
            "type" : "VEC3"
        },
        {
            "bufferView" : 2,
            "componentType" : 5123,
            "count" : 60,
            "type" : "SCALAR"
        },
        {
            "bufferView" : 3,
            "componentType" : 5126,
            "count" : 204,
            "max" : [
                1.249361515045166,
                0.023130975663661957,
                0.6933993101119995
            ],
            "min" : [
                -1.2690972089767456,
                -0.08576197922229767,
                -0.9265924096107483
            ],
            "type" : "VEC3"
        },
        {
            "bufferView" : 4,
            "componentType" : 5126,
            "count" : 204,
            "type" : "VEC3"
        },
        {
            "bufferView" : 5,
            "componentType" : 5126,
            "count" : 204,
            "type" : "VEC2"
        },
        {
            "bufferView" : 6,
            "componentType" : 5123,
            "count" : 456,
            "type" : "SCALAR"
        },
        {
            "bufferView" : 7,
            "componentType" : 5126,
            "count" : 38,
            "max" : [
                1.2487967014312744,
                -0.0816100463271141,
                0.4791208803653717
            ],
            "min" : [
                -1.2690972089767456,
                -0.08576197177171707,
                -0.9265924096107483
            ],
            "type" : "VEC3"
        },
        {
            "bufferView" : 8,
            "componentType" : 5126,
            "count" : 38,
            "type" : "VEC3"
        },
        {
            "bufferView" : 9,
            "componentType" : 5126,
            "count" : 38,
            "type" : "VEC2"
        },
        {
            "bufferView" : 10,
            "componentType" : 5123,
            "count" : 108,
            "type" : "SCALAR"
        }
    ],
    "bufferViews" : [
        {
            "buffer" : 0,
            "byteLength" : 672,
            "byteOffset" : 0
        },
        {
            "buffer" : 0,
            "byteLength" : 672,
            "byteOffset" : 672
        },
        {
            "buffer" : 0,
            "byteLength" : 120,
            "byteOffset" : 1344
        },
        {
            "buffer" : 0,
            "byteLength" : 2448,
            "byteOffset" : 1464
        },
        {
            "buffer" : 0,
            "byteLength" : 2448,
            "byteOffset" : 3912
        },
        {
            "buffer" : 0,
            "byteLength" : 1632,
            "byteOffset" : 6360
        },
        {
            "buffer" : 0,
            "byteLength" : 912,
            "byteOffset" : 7992
        },
        {
            "buffer" : 0,
            "byteLength" : 456,
            "byteOffset" : 8904
        },
        {
            "buffer" : 0,
            "byteLength" : 456,
            "byteOffset" : 9360
        },
        {
            "buffer" : 0,
            "byteLength" : 304,
            "byteOffset" : 9816
        },
        {
            "buffer" : 0,
            "byteLength" : 216,
            "byteOffset" : 10120
        }
    ],
    "buffers" : [
        {
            "byteLength" : 10336,
            "uri" : "data:application/octet-stream;base64,"
        }
    ]
}
