{
    "asset" : {
        "generator" : "Khronos glTF Blender I/O v1.7.33",
        "version" : "2.0"
    },
    "scene" : 0,
    "scenes" : [
        {
            "name" : "Scene",
            "nodes" : [
                0,
                1,
                2,
                3,
                4,
                5,
                6,
                7,
                8
            ]
        }
    ],
    "nodes" : [
        {
            "mesh" : 0,
            "name" : "a1",
            "rotation" : [
                0,
                0,
                -0.7071067690849304,
                0.7071068286895752
            ],
            "scale" : [
                0.03486638516187668,
                0.03486638516187668,
                0.03486638516187668
            ],
            "translation" : [
                -0.11527225375175476,
                0.48444050550460815,
                -0.11737674474716187
            ]
        },
        {
            "mesh" : 1,
            "name" : "a2",
            "rotation" : [
                0,
                0,
                -0.7071067690849304,
                0.7071068286895752
            ],
            "scale" : [
                0.03486638516187668,
                0.03486638516187668,
                0.03486638516187668
            ],
            "translation" : [
                -0.11527225375175476,
                0.03447790816426277,
                -0.12915724515914917
            ]
        },
        {
            "mesh" : 2,
            "name" : "b",
            "rotation" : [
                0,
                0,
                -0.7071067690849304,
                0.7071068286895752
            ],
            "scale" : [
                0.03486638516187668,
                0.03486638516187668,
                0.03486638516187668
            ],
            "translation" : [
                -0.0879080593585968,
                0.18403930962085724,
                -0.08107060194015503
            ]
        },
        {
            "mesh" : 3,
            "name" : "e",
            "rotation" : [
                0,
                0,
                -0.7071067690849304,
                0.7071068286895752
            ],
            "scale" : [
                0.03486638516187668,
                0.03486638516187668,
                0.03486638516187668
            ],
            "translation" : [
                -0.11527225375175476,
                0.48444050550460815,
                -0.11737674474716187
            ]
        },
        {
            "mesh" : 4,
            "name" : "i",
            "rotation" : [
                0,
                0,
                -0.7071067690849304,
                0.7071068286895752
            ],
            "scale" : [
                0.03486638516187668,
                0.03486638516187668,
                0.03486638516187668
            ],
            "translation" : [
                -0.11527225375175476,
                0.48444050550460815,
                -0.11737674474716187
            ]
        },
        {
            "mesh" : 5,
            "name" : "n",
            "rotation" : [
                0,
                0,
                -0.7071067690849304,
                0.7071068286895752
            ],
            "scale" : [
                0.03486638516187668,
                0.03486638516187668,
                0.03486638516187668
            ],
            "translation" : [
                -0.11527225375175476,
                0.48444050550460815,
                -0.11737674474716187
            ]
        },
        {
            "mesh" : 6,
            "name" : "r",
            "rotation" : [
                0,
                0,
                -0.7071067690849304,
                0.7071068286895752
            ],
            "scale" : [
                0.03486638516187668,
                0.03486638516187668,
                0.03486638516187668
            ],
            "translation" : [
                -0.11527225375175476,
                0.48444050550460815,
                -0.11737674474716187
            ]
        },
        {
            "mesh" : 7,
            "name" : "t",
            "rotation" : [
                0,
                0,
                -0.7071067690849304,
                0.7071068286895752
            ],
            "scale" : [
                0.03486638516187668,
                0.03486638516187668,
                0.03486638516187668
            ],
            "translation" : [
                -0.11527225375175476,
                0.48444050550460815,
                -0.11737674474716187
            ]
        },
        {
            "mesh" : 8,
            "name" : "i-dot",
            "scale" : [
                0.06163252890110016,
                0.06163252890110016,
                0.06163252890110016
            ],
            "translation" : [
                -0.08145570755004883,
                0.37343862652778625,
                -0.7429642081260681
            ]
        }
    ],
    "materials" : [
        {
            "doubleSided" : true,
            "name" : "Title Material",
            "pbrMetallicRoughness" : {
                "baseColorFactor" : [
                    0.6500053405761719,
                    0.5678098201751709,
                    0.5334140062332153,
                    1
                ],
                "metallicFactor" : 0.04724409431219101,
                "roughnessFactor" : 0.4212597906589508
            }
        }
    ],
    "meshes" : [
        {
            "name" : "Plane.002",
            "primitives" : [
                {
                    "attributes" : {
                        "POSITION" : 0,
                        "NORMAL" : 1
                    },
                    "indices" : 2,
                    "material" : 0
                }
            ]
        },
        {
            "name" : "Plane.009",
            "primitives" : [
                {
                    "attributes" : {
                        "POSITION" : 3,
                        "NORMAL" : 4
                    },
                    "indices" : 5,
                    "material" : 0
                }
            ]
        },
        {
            "name" : "Plane",
            "primitives" : [
                {
                    "attributes" : {
                        "POSITION" : 6,
                        "NORMAL" : 7
                    },
                    "indices" : 8,
                    "material" : 0
                }
            ]
        },
        {
            "name" : "Plane.006",
            "primitives" : [
                {
                    "attributes" : {
                        "POSITION" : 9,
                        "NORMAL" : 10
                    },
                    "indices" : 11,
                    "material" : 0
                }
            ]
        },
        {
            "name" : "Plane.007",
            "primitives" : [
                {
                    "attributes" : {
                        "POSITION" : 12,
                        "NORMAL" : 13
                    },
                    "indices" : 14,
                    "material" : 0
                }
            ]
        },
        {
            "name" : "Plane.004",
            "primitives" : [
                {
                    "attributes" : {
                        "POSITION" : 15,
                        "NORMAL" : 16
                    },
                    "indices" : 17,
                    "material" : 0
                }
            ]
        },
        {
            "name" : "Plane.008",
            "primitives" : [
                {
                    "attributes" : {
                        "POSITION" : 18,
                        "NORMAL" : 19,
                        "COLOR_0" : 20
                    },
                    "indices" : 21,
                    "material" : 0
                }
            ]
        },
        {
            "name" : "Plane.005",
            "primitives" : [
                {
                    "attributes" : {
                        "POSITION" : 22,
                        "NORMAL" : 23
                    },
                    "indices" : 24,
                    "material" : 0
                }
            ]
        },
        {
            "name" : "Sphere",
            "primitives" : [
                {
                    "attributes" : {
                        "POSITION" : 25,
                        "NORMAL" : 26
                    },
                    "indices" : 27,
                    "material" : 0
                }
            ]
        }
    ],
    "accessors" : [
        {
            "bufferView" : 0,
            "componentType" : 5126,
            "count" : 615,
            "max" : [
                1.0183309316635132,
                2.024780750274658,
                -8.339190483093262
            ],
            "min" : [
                -7.954133033752441,
                0.01165318489074707,
                -15.808845520019531
            ],
            "type" : "VEC3"
        },
        {
            "bufferView" : 1,
            "componentType" : 5126,
            "count" : 615,
            "type" : "VEC3"
        },
        {
            "bufferView" : 2,
            "componentType" : 5123,
            "count" : 912,
            "type" : "SCALAR"
        },
        {
            "bufferView" : 3,
            "componentType" : 5126,
            "count" : 609,
            "max" : [
                1.0183309316635132,
                2.024780750274658,
                -8.339190483093262
            ],
            "min" : [
                -7.954133033752441,
                0.01165318489074707,
                -15.808845520019531
            ],
            "type" : "VEC3"
        },
        {
            "bufferView" : 4,
            "componentType" : 5126,
            "count" : 609,
            "type" : "VEC3"
        },
        {
            "bufferView" : 5,
            "componentType" : 5123,
            "count" : 912,
            "type" : "SCALAR"
        },
        {
            "bufferView" : 6,
            "componentType" : 5126,
            "count" : 545,
            "max" : [
                5.209249973297119,
                1.2289767265319824,
                1.1712737083435059
            ],
            "min" : [
                -7.973550796508789,
                -0.8226189613342285,
                -7.768270969390869
            ],
            "type" : "VEC3"
        },
        {
            "bufferView" : 7,
            "componentType" : 5126,
            "count" : 545,
            "type" : "VEC3"
        },
        {
            "bufferView" : 8,
            "componentType" : 5123,
            "count" : 864,
            "type" : "SCALAR"
        },
        {
            "bufferView" : 9,
            "componentType" : 5126,
            "count" : 609,
            "max" : [
                1.1033515930175781,
                2.081538677215576,
                -20.36146354675293
            ],
            "min" : [
                -7.805004119873047,
                0.07985560595989227,
                -27.34313201904297
            ],
            "type" : "VEC3"
        },
        {
            "bufferView" : 10,
            "componentType" : 5126,
            "count" : 609,
            "type" : "VEC3"
        },
        {
            "bufferView" : 11,
            "componentType" : 5123,
            "count" : 912,
            "type" : "SCALAR"
        },
        {
            "bufferView" : 12,
            "componentType" : 5126,
            "count" : 50,
            "max" : [
                13.964752197265625,
                1.8648953437805176,
                -15.55543327331543
            ],
            "min" : [
                4.9994401931762695,
                0.06489083170890808,
                -18.85736083984375
            ],
            "type" : "VEC3"
        },
        {
            "bufferView" : 13,
            "componentType" : 5126,
            "count" : 50,
            "type" : "VEC3"
        },
        {
            "bufferView" : 14,
            "componentType" : 5123,
            "count" : 60,
            "type" : "SCALAR"
        },
        {
            "bufferView" : 15,
            "componentType" : 5126,
            "count" : 209,
            "max" : [
                13.996183395385742,
                2.0000007152557373,
                1
            ],
            "min" : [
                -11.928057670593262,
                -1.1113286291219993e-06,
                -8.255998611450195
            ],
            "type" : "VEC3"
        },
        {
            "bufferView" : 16,
            "componentType" : 5126,
            "count" : 209,
            "type" : "VEC3"
        },
        {
            "bufferView" : 17,
            "componentType" : 5123,
            "count" : 318,
            "type" : "SCALAR"
        },
        {
            "bufferView" : 18,
            "componentType" : 5126,
            "count" : 492,
            "max" : [
                13.803257942199707,
                1.7847168445587158,
                -18.08924674987793
            ],
            "min" : [
                3.7888596057891846,
                0.16096733510494232,
                -26.95667266845703
            ],
            "type" : "VEC3"
        },
        {
            "bufferView" : 19,
            "componentType" : 5126,
            "count" : 492,
            "type" : "VEC3"
        },
        {
            "bufferView" : 20,
            "componentType" : 5123,
            "count" : 492,
            "normalized" : true,
            "type" : "VEC4"
        },
        {
            "bufferView" : 21,
            "componentType" : 5123,
            "count" : 756,
            "type" : "SCALAR"
        },
        {
            "bufferView" : 22,
            "componentType" : 5126,
            "count" : 196,
            "max" : [
                1.750372290611267,
                1.921324372291565,
                -15.109393119812012
            ],
            "min" : [
                -9.095755577087402,
                0.14391574263572693,
                -21.100006103515625
            ],
            "type" : "VEC3"
        },
        {
            "bufferView" : 23,
            "componentType" : 5126,
            "count" : 196,
            "type" : "VEC3"
        },
        {
            "bufferView" : 24,
            "componentType" : 5123,
            "count" : 288,
            "type" : "SCALAR"
        },
        {
            "bufferView" : 25,
            "componentType" : 5126,
            "count" : 482,
            "max" : [
                0.9999997019767761,
                1,
                0.9999994039535522
            ],
            "min" : [
                -0.9999990463256836,
                -1,
                -0.9999987483024597
            ],
            "type" : "VEC3"
        },
        {
            "bufferView" : 26,
            "componentType" : 5126,
            "count" : 482,
            "type" : "VEC3"
        },
        {
            "bufferView" : 27,
            "componentType" : 5123,
            "count" : 2880,
            "type" : "SCALAR"
        }
    ],
    "bufferViews" : [
        {
            "buffer" : 0,
            "byteLength" : 7380,
            "byteOffset" : 0
        },
        {
            "buffer" : 0,
            "byteLength" : 7380,
            "byteOffset" : 7380
        },
        {
            "buffer" : 0,
            "byteLength" : 1824,
            "byteOffset" : 14760
        },
        {
            "buffer" : 0,
            "byteLength" : 7308,
            "byteOffset" : 16584
        },
        {
            "buffer" : 0,
            "byteLength" : 7308,
            "byteOffset" : 23892
        },
        {
            "buffer" : 0,
            "byteLength" : 1824,
            "byteOffset" : 31200
        },
        {
            "buffer" : 0,
            "byteLength" : 6540,
            "byteOffset" : 33024
        },
        {
            "buffer" : 0,
            "byteLength" : 6540,
            "byteOffset" : 39564
        },
        {
            "buffer" : 0,
            "byteLength" : 1728,
            "byteOffset" : 46104
        },
        {
            "buffer" : 0,
            "byteLength" : 7308,
            "byteOffset" : 47832
        },
        {
            "buffer" : 0,
            "byteLength" : 7308,
            "byteOffset" : 55140
        },
        {
            "buffer" : 0,
            "byteLength" : 1824,
            "byteOffset" : 62448
        },
        {
            "buffer" : 0,
            "byteLength" : 600,
            "byteOffset" : 64272
        },
        {
            "buffer" : 0,
            "byteLength" : 600,
            "byteOffset" : 64872
        },
        {
            "buffer" : 0,
            "byteLength" : 120,
            "byteOffset" : 65472
        },
        {
            "buffer" : 0,
            "byteLength" : 2508,
            "byteOffset" : 65592
        },
        {
            "buffer" : 0,
            "byteLength" : 2508,
            "byteOffset" : 68100
        },
        {
            "buffer" : 0,
            "byteLength" : 636,
            "byteOffset" : 70608
        },
        {
            "buffer" : 0,
            "byteLength" : 5904,
            "byteOffset" : 71244
        },
        {
            "buffer" : 0,
            "byteLength" : 5904,
            "byteOffset" : 77148
        },
        {
            "buffer" : 0,
            "byteLength" : 3936,
            "byteOffset" : 83052
        },
        {
            "buffer" : 0,
            "byteLength" : 1512,
            "byteOffset" : 86988
        },
        {
            "buffer" : 0,
            "byteLength" : 2352,
            "byteOffset" : 88500
        },
        {
            "buffer" : 0,
            "byteLength" : 2352,
            "byteOffset" : 90852
        },
        {
            "buffer" : 0,
            "byteLength" : 576,
            "byteOffset" : 93204
        },
        {
            "buffer" : 0,
            "byteLength" : 5784,
            "byteOffset" : 93780
        },
        {
            "buffer" : 0,
            "byteLength" : 5784,
            "byteOffset" : 99564
        },
        {
            "buffer" : 0,
            "byteLength" : 5760,
            "byteOffset" : 105348
        }
    ],
    "buffers" : [
        {
            "byteLength" : 111108,
            "uri" : "data:application/octet-stream;base64,"
        }
    ]
}
