{
    "asset" : {
        "generator" : "Khronos glTF Blender I/O v1.7.33",
        "version" : "2.0"
    },
    "scene" : 0,
    "scenes" : [
        {
            "name" : "Scene",
            "nodes" : [
                0,
                1
            ]
        }
    ],
    "nodes" : [
        {
            "mesh" : 0,
            "name" : "closed-delta",
            "rotation" : [
                0.7071068286895752,
                0,
                0,
                0.7071068286895752
            ],
            "translation" : [
                0,
                2.170755624771118,
                0
            ]
        },
        {
            "mesh" : 1,
            "name" : "open-delta",
            "rotation" : [
                0.7071068286895752,
                0,
                0,
                0.7071068286895752
            ],
            "translation" : [
                0,
                2.170755624771118,
                -0.04915879666805267
            ]
        }
    ],
    "materials" : [
        {
            "doubleSided" : true,
            "name" : "Material.001",
            "pbrMetallicRoughness" : {
                "baseColorFactor" : [
                    0.004600008483976126,
                    0.1528410017490387,
                    0.3224511742591858,
                    1
                ],
                "metallicFactor" : 0,
                "roughnessFactor" : 0.5
            }
        },
        {
            "doubleSided" : true,
            "name" : "Material.002",
            "pbrMetallicRoughness" : {
                "baseColorFactor" : [
                    0.0321938581764698,
                    0.6285045146942139,
                    0.9331077337265015,
                    1
                ],
                "metallicFactor" : 0,
                "roughnessFactor" : 0.5
            }
        }
    ],
    "meshes" : [
        {
            "name" : "Plane",
            "primitives" : [
                {
                    "attributes" : {
                        "POSITION" : 0,
                        "NORMAL" : 1,
                        "TEXCOORD_0" : 2
                    },
                    "indices" : 3,
                    "material" : 0
                }
            ]
        },
        {
            "name" : "Plane.001",
            "primitives" : [
                {
                    "attributes" : {
                        "POSITION" : 4,
                        "NORMAL" : 5,
                        "TEXCOORD_0" : 6
                    },
                    "indices" : 7,
                    "material" : 1
                }
            ]
        }
    ],
    "accessors" : [
        {
            "bufferView" : 0,
            "componentType" : 5126,
            "count" : 1464,
            "max" : [
                2.0237579345703125,
                0.5,
                1.993272066116333
            ],
            "min" : [
                -2.151367425918579,
                -0.09884071350097656,
                -1.3754314184188843
            ],
            "type" : "VEC3"
        },
        {
            "bufferView" : 1,
            "componentType" : 5126,
            "count" : 1464,
            "type" : "VEC3"
        },
        {
            "bufferView" : 2,
            "componentType" : 5126,
            "count" : 1464,
            "type" : "VEC2"
        },
        {
            "bufferView" : 3,
            "componentType" : 5123,
            "count" : 2670,
            "type" : "SCALAR"
        },
        {
            "bufferView" : 4,
            "componentType" : 5126,
            "count" : 82,
            "max" : [
                1.8841369152069092,
                0.5,
                -0.0984983742237091
            ],
            "min" : [
                -1.9150432348251343,
                0,
                -2.44962215423584
            ],
            "type" : "VEC3"
        },
        {
            "bufferView" : 5,
            "componentType" : 5126,
            "count" : 82,
            "type" : "VEC3"
        },
        {
            "bufferView" : 6,
            "componentType" : 5126,
            "count" : 82,
            "type" : "VEC2"
        },
        {
            "bufferView" : 7,
            "componentType" : 5123,
            "count" : 144,
            "type" : "SCALAR"
        }
    ],
    "bufferViews" : [
        {
            "buffer" : 0,
            "byteLength" : 17568,
            "byteOffset" : 0
        },
        {
            "buffer" : 0,
            "byteLength" : 17568,
            "byteOffset" : 17568
        },
        {
            "buffer" : 0,
            "byteLength" : 11712,
            "byteOffset" : 35136
        },
        {
            "buffer" : 0,
            "byteLength" : 5340,
            "byteOffset" : 46848
        },
        {
            "buffer" : 0,
            "byteLength" : 984,
            "byteOffset" : 52188
        },
        {
            "buffer" : 0,
            "byteLength" : 984,
            "byteOffset" : 53172
        },
        {
            "buffer" : 0,
            "byteLength" : 656,
            "byteOffset" : 54156
        },
        {
            "buffer" : 0,
            "byteLength" : 288,
            "byteOffset" : 54812
        }
    ],
    "buffers" : [
        {
            "byteLength" : 55100,
            "uri" : "data:application/octet-stream;base64,"
        }
    ]
}
