{
    "asset" : {
        "generator" : "Khronos glTF Blender I/O v1.7.33",
        "version" : "2.0"
    },
    "scene" : 0,
    "scenes" : [
        {
            "name" : "Scene",
            "nodes" : [
                0,
                1,
                2,
                3,
                4,
                5,
                6,
                7,
                8,
                9,
                10,
                11,
                12
            ]
        }
    ],
    "nodes" : [
        {
            "mesh" : 0,
            "name" : "Cube",
            "translation" : [
                0,
                2.7854995727539062,
                -5.04067325592041
            ]
        },
        {
            "mesh" : 1,
            "name" : "Cube.001",
            "translation" : [
                -1.0070760250091553,
                1.336495041847229,
                -1.036712884902954
            ]
        },
        {
            "mesh" : 2,
            "name" : "Cube.002",
            "translation" : [
                -1.0070760250091553,
                2.066494941711426,
                -2.1867127418518066
            ]
        },
        {
            "mesh" : 3,
            "name" : "Cube.003",
            "translation" : [
                -1.0070760250091553,
                2.796494960784912,
                -3.3367128372192383
            ]
        },
        {
            "mesh" : 4,
            "name" : "Cube.004",
            "translation" : [
                -1.0070760250091553,
                3.5264949798583984,
                -4.48671293258667
            ]
        },
        {
            "mesh" : 5,
            "name" : "Cube.005",
            "translation" : [
                -1.0070760250091553,
                4.256494998931885,
                -5.636713027954102
            ]
        },
        {
            "mesh" : 6,
            "name" : "Cube.006",
            "translation" : [
                -1.0070760250091553,
                4.986495018005371,
                -6.786713123321533
            ]
        },
        {
            "mesh" : 7,
            "name" : "Cube.008",
            "translation" : [
                -1.0070760250091553,
                5.716495037078857,
                -7.936713218688965
            ]
        },
        {
            "mesh" : 8,
            "name" : "Cube.009",
            "translation" : [
                -1.0070760250091553,
                6.446495056152344,
                -9.086712837219238
            ]
        },
        {
            "mesh" : 9,
            "name" : "Cube.010",
            "translation" : [
                -1.0070760250091553,
                7.17649507522583,
                -10.236712455749512
            ]
        },
        {
            "mesh" : 10,
            "name" : "Cube.011",
            "translation" : [
                -1.0070760250091553,
                7.906495094299316,
                -11.386712074279785
            ]
        },
        {
            "mesh" : 11,
            "name" : "Cube.012",
            "translation" : [
                -1.0070760250091553,
                8.636495590209961,
                -12.536711692810059
            ]
        },
        {
            "mesh" : 12,
            "name" : "Cube.013",
            "translation" : [
                -1.0070760250091553,
                9.366495132446289,
                -13.686711311340332
            ]
        }
    ],
    "materials" : [
        {
            "doubleSided" : true,
            "name" : "Material.001",
            "pbrMetallicRoughness" : {
                "baseColorFactor" : [
                    0.800000011920929,
                    0.800000011920929,
                    0.800000011920929,
                    1
                ],
                "metallicFactor" : 0,
                "roughnessFactor" : 0.5
            }
        },
        {
            "doubleSided" : true,
            "name" : "Material",
            "pbrMetallicRoughness" : {
                "baseColorFactor" : [
                    0.800000011920929,
                    0.800000011920929,
                    0.800000011920929,
                    1
                ],
                "metallicFactor" : 0,
                "roughnessFactor" : 0.4000000059604645
            }
        }
    ],
    "meshes" : [
        {
            "name" : "Cube.001",
            "primitives" : [
                {
                    "attributes" : {
                        "POSITION" : 0,
                        "NORMAL" : 1,
                        "TEXCOORD_0" : 2
                    },
                    "indices" : 3,
                    "material" : 0
                }
            ]
        },
        {
            "name" : "Cube.002",
            "primitives" : [
                {
                    "attributes" : {
                        "POSITION" : 4,
                        "NORMAL" : 5,
                        "TEXCOORD_0" : 6
                    },
                    "indices" : 7,
                    "material" : 1
                }
            ]
        },
        {
            "name" : "Cube.004",
            "primitives" : [
                {
                    "attributes" : {
                        "POSITION" : 8,
                        "NORMAL" : 9,
                        "TEXCOORD_0" : 10
                    },
                    "indices" : 7,
                    "material" : 1
                }
            ]
        },
        {
            "name" : "Cube.005",
            "primitives" : [
                {
                    "attributes" : {
                        "POSITION" : 11,
                        "NORMAL" : 12,
                        "TEXCOORD_0" : 13
                    },
                    "indices" : 7,
                    "material" : 1
                }
            ]
        },
        {
            "name" : "Cube.006",
            "primitives" : [
                {
                    "attributes" : {
                        "POSITION" : 14,
                        "NORMAL" : 15,
                        "TEXCOORD_0" : 16
                    },
                    "indices" : 7,
                    "material" : 1
                }
            ]
        },
        {
            "name" : "Cube.007",
            "primitives" : [
                {
                    "attributes" : {
                        "POSITION" : 17,
                        "NORMAL" : 18,
                        "TEXCOORD_0" : 19
                    },
                    "indices" : 7,
                    "material" : 1
                }
            ]
        },
        {
            "name" : "Cube.008",
            "primitives" : [
                {
                    "attributes" : {
                        "POSITION" : 20,
                        "NORMAL" : 21,
                        "TEXCOORD_0" : 22
                    },
                    "indices" : 7,
                    "material" : 1
                }
            ]
        },
        {
            "name" : "Cube.010",
            "primitives" : [
                {
                    "attributes" : {
                        "POSITION" : 23,
                        "NORMAL" : 24,
                        "TEXCOORD_0" : 25
                    },
                    "indices" : 7,
                    "material" : 1
                }
            ]
        },
        {
            "name" : "Cube.011",
            "primitives" : [
                {
                    "attributes" : {
                        "POSITION" : 26,
                        "NORMAL" : 27,
                        "TEXCOORD_0" : 28
                    },
                    "indices" : 7,
                    "material" : 1
                }
            ]
        },
        {
            "name" : "Cube.012",
            "primitives" : [
                {
                    "attributes" : {
                        "POSITION" : 29,
                        "NORMAL" : 30,
                        "TEXCOORD_0" : 31
                    },
                    "indices" : 7,
                    "material" : 1
                }
            ]
        },
        {
            "name" : "Cube.013",
            "primitives" : [
                {
                    "attributes" : {
                        "POSITION" : 32,
                        "NORMAL" : 33,
                        "TEXCOORD_0" : 34
                    },
                    "indices" : 7,
                    "material" : 1
                }
            ]
        },
        {
            "name" : "Cube.014",
            "primitives" : [
                {
                    "attributes" : {
                        "POSITION" : 35,
                        "NORMAL" : 36,
                        "TEXCOORD_0" : 37
                    },
                    "indices" : 7,
                    "material" : 1
                }
            ]
        },
        {
            "name" : "Cube.015",
            "primitives" : [
                {
                    "attributes" : {
                        "POSITION" : 38,
                        "NORMAL" : 39,
                        "TEXCOORD_0" : 40
                    },
                    "indices" : 7,
                    "material" : 1
                }
            ]
        }
    ],
    "accessors" : [
        {
            "bufferView" : 0,
            "componentType" : 5126,
            "count" : 40,
            "max" : [
                1,
                8.021502494812012,
                6.04067325592041
            ],
            "min" : [
                -0.040515244007110596,
                -2.413158655166626,
                -10.224599838256836
            ],
            "type" : "VEC3"
        },
        {
            "bufferView" : 1,
            "componentType" : 5126,
            "count" : 40,
            "type" : "VEC3"
        },
        {
            "bufferView" : 2,
            "componentType" : 5126,
            "count" : 40,
            "type" : "VEC2"
        },
        {
            "bufferView" : 3,
            "componentType" : 5123,
            "count" : 60,
            "type" : "SCALAR"
        },
        {
            "bufferView" : 4,
            "componentType" : 5126,
            "count" : 24,
            "max" : [
                1,
                -0.2113146036863327,
                1
            ],
            "min" : [
                -4.987156867980957,
                -0.9501774311065674,
                -1
            ],
            "type" : "VEC3"
        },
        {
            "bufferView" : 5,
            "componentType" : 5126,
            "count" : 24,
            "type" : "VEC3"
        },
        {
            "bufferView" : 6,
            "componentType" : 5126,
            "count" : 24,
            "type" : "VEC2"
        },
        {
            "bufferView" : 7,
            "componentType" : 5123,
            "count" : 36,
            "type" : "SCALAR"
        },
        {
            "bufferView" : 8,
            "componentType" : 5126,
            "count" : 24,
            "max" : [
                1,
                -0.2113146036863327,
                1
            ],
            "min" : [
                -4.987156867980957,
                -0.9501774311065674,
                -1
            ],
            "type" : "VEC3"
        },
        {
            "bufferView" : 9,
            "componentType" : 5126,
            "count" : 24,
            "type" : "VEC3"
        },
        {
            "bufferView" : 10,
            "componentType" : 5126,
            "count" : 24,
            "type" : "VEC2"
        },
        {
            "bufferView" : 11,
            "componentType" : 5126,
            "count" : 24,
            "max" : [
                1,
                -0.2113146036863327,
                1
            ],
            "min" : [
                -4.987156867980957,
                -0.9501774311065674,
                -1
            ],
            "type" : "VEC3"
        },
        {
            "bufferView" : 12,
            "componentType" : 5126,
            "count" : 24,
            "type" : "VEC3"
        },
        {
            "bufferView" : 13,
            "componentType" : 5126,
            "count" : 24,
            "type" : "VEC2"
        },
        {
            "bufferView" : 14,
            "componentType" : 5126,
            "count" : 24,
            "max" : [
                1,
                -0.2113146036863327,
                1
            ],
            "min" : [
                -4.987156867980957,
                -0.9501774311065674,
                -1
            ],
            "type" : "VEC3"
        },
        {
            "bufferView" : 15,
            "componentType" : 5126,
            "count" : 24,
            "type" : "VEC3"
        },
        {
            "bufferView" : 16,
            "componentType" : 5126,
            "count" : 24,
            "type" : "VEC2"
        },
        {
            "bufferView" : 17,
            "componentType" : 5126,
            "count" : 24,
            "max" : [
                1,
                -0.2113146036863327,
                1
            ],
            "min" : [
                -4.987156867980957,
                -0.9501774311065674,
                -1
            ],
            "type" : "VEC3"
        },
        {
            "bufferView" : 18,
            "componentType" : 5126,
            "count" : 24,
            "type" : "VEC3"
        },
        {
            "bufferView" : 19,
            "componentType" : 5126,
            "count" : 24,
            "type" : "VEC2"
        },
        {
            "bufferView" : 20,
            "componentType" : 5126,
            "count" : 24,
            "max" : [
                1,
                -0.2113146036863327,
                1
            ],
            "min" : [
                -4.987156867980957,
                -0.9501774311065674,
                -1
            ],
            "type" : "VEC3"
        },
        {
            "bufferView" : 21,
            "componentType" : 5126,
            "count" : 24,
            "type" : "VEC3"
        },
        {
            "bufferView" : 22,
            "componentType" : 5126,
            "count" : 24,
            "type" : "VEC2"
        },
        {
            "bufferView" : 23,
            "componentType" : 5126,
            "count" : 24,
            "max" : [
                1,
                -0.2113146036863327,
                1
            ],
            "min" : [
                -4.987156867980957,
                -0.9501774311065674,
                -1
            ],
            "type" : "VEC3"
        },
        {
            "bufferView" : 24,
            "componentType" : 5126,
            "count" : 24,
            "type" : "VEC3"
        },
        {
            "bufferView" : 25,
            "componentType" : 5126,
            "count" : 24,
            "type" : "VEC2"
        },
        {
            "bufferView" : 26,
            "componentType" : 5126,
            "count" : 24,
            "max" : [
                1,
                -0.2113146036863327,
                1
            ],
            "min" : [
                -4.987156867980957,
                -0.9501774311065674,
                -1
            ],
            "type" : "VEC3"
        },
        {
            "bufferView" : 27,
            "componentType" : 5126,
            "count" : 24,
            "type" : "VEC3"
        },
        {
            "bufferView" : 28,
            "componentType" : 5126,
            "count" : 24,
            "type" : "VEC2"
        },
        {
            "bufferView" : 29,
            "componentType" : 5126,
            "count" : 24,
            "max" : [
                1,
                -0.2113146036863327,
                1
            ],
            "min" : [
                -4.987156867980957,
                -0.9501774311065674,
                -1
            ],
            "type" : "VEC3"
        },
        {
            "bufferView" : 30,
            "componentType" : 5126,
            "count" : 24,
            "type" : "VEC3"
        },
        {
            "bufferView" : 31,
            "componentType" : 5126,
            "count" : 24,
            "type" : "VEC2"
        },
        {
            "bufferView" : 32,
            "componentType" : 5126,
            "count" : 24,
            "max" : [
                1,
                -0.2113146036863327,
                1
            ],
            "min" : [
                -4.987156867980957,
                -0.9501774311065674,
                -1
            ],
            "type" : "VEC3"
        },
        {
            "bufferView" : 33,
            "componentType" : 5126,
            "count" : 24,
            "type" : "VEC3"
        },
        {
            "bufferView" : 34,
            "componentType" : 5126,
            "count" : 24,
            "type" : "VEC2"
        },
        {
            "bufferView" : 35,
            "componentType" : 5126,
            "count" : 24,
            "max" : [
                1,
                -0.2113146036863327,
                1
            ],
            "min" : [
                -4.987156867980957,
                -0.9501774311065674,
                -1
            ],
            "type" : "VEC3"
        },
        {
            "bufferView" : 36,
            "componentType" : 5126,
            "count" : 24,
            "type" : "VEC3"
        },
        {
            "bufferView" : 37,
            "componentType" : 5126,
            "count" : 24,
            "type" : "VEC2"
        },
        {
            "bufferView" : 38,
            "componentType" : 5126,
            "count" : 24,
            "max" : [
                1,
                -0.2113146036863327,
                1
            ],
            "min" : [
                -4.987156867980957,
                -0.9501774311065674,
                -1
            ],
            "type" : "VEC3"
        },
        {
            "bufferView" : 39,
            "componentType" : 5126,
            "count" : 24,
            "type" : "VEC3"
        },
        {
            "bufferView" : 40,
            "componentType" : 5126,
            "count" : 24,
            "type" : "VEC2"
        }
    ],
    "bufferViews" : [
        {
            "buffer" : 0,
            "byteLength" : 480,
            "byteOffset" : 0
        },
        {
            "buffer" : 0,
            "byteLength" : 480,
            "byteOffset" : 480
        },
        {
            "buffer" : 0,
            "byteLength" : 320,
            "byteOffset" : 960
        },
        {
            "buffer" : 0,
            "byteLength" : 120,
            "byteOffset" : 1280
        },
        {
            "buffer" : 0,
            "byteLength" : 288,
            "byteOffset" : 1400
        },
        {
            "buffer" : 0,
            "byteLength" : 288,
            "byteOffset" : 1688
        },
        {
            "buffer" : 0,
            "byteLength" : 192,
            "byteOffset" : 1976
        },
        {
            "buffer" : 0,
            "byteLength" : 72,
            "byteOffset" : 2168
        },
        {
            "buffer" : 0,
            "byteLength" : 288,
            "byteOffset" : 2240
        },
        {
            "buffer" : 0,
            "byteLength" : 288,
            "byteOffset" : 2528
        },
        {
            "buffer" : 0,
            "byteLength" : 192,
            "byteOffset" : 2816
        },
        {
            "buffer" : 0,
            "byteLength" : 288,
            "byteOffset" : 3008
        },
        {
            "buffer" : 0,
            "byteLength" : 288,
            "byteOffset" : 3296
        },
        {
            "buffer" : 0,
            "byteLength" : 192,
            "byteOffset" : 3584
        },
        {
            "buffer" : 0,
            "byteLength" : 288,
            "byteOffset" : 3776
        },
        {
            "buffer" : 0,
            "byteLength" : 288,
            "byteOffset" : 4064
        },
        {
            "buffer" : 0,
            "byteLength" : 192,
            "byteOffset" : 4352
        },
        {
            "buffer" : 0,
            "byteLength" : 288,
            "byteOffset" : 4544
        },
        {
            "buffer" : 0,
            "byteLength" : 288,
            "byteOffset" : 4832
        },
        {
            "buffer" : 0,
            "byteLength" : 192,
            "byteOffset" : 5120
        },
        {
            "buffer" : 0,
            "byteLength" : 288,
            "byteOffset" : 5312
        },
        {
            "buffer" : 0,
            "byteLength" : 288,
            "byteOffset" : 5600
        },
        {
            "buffer" : 0,
            "byteLength" : 192,
            "byteOffset" : 5888
        },
        {
            "buffer" : 0,
            "byteLength" : 288,
            "byteOffset" : 6080
        },
        {
            "buffer" : 0,
            "byteLength" : 288,
            "byteOffset" : 6368
        },
        {
            "buffer" : 0,
            "byteLength" : 192,
            "byteOffset" : 6656
        },
        {
            "buffer" : 0,
            "byteLength" : 288,
            "byteOffset" : 6848
        },
        {
            "buffer" : 0,
            "byteLength" : 288,
            "byteOffset" : 7136
        },
        {
            "buffer" : 0,
            "byteLength" : 192,
            "byteOffset" : 7424
        },
        {
            "buffer" : 0,
            "byteLength" : 288,
            "byteOffset" : 7616
        },
        {
            "buffer" : 0,
            "byteLength" : 288,
            "byteOffset" : 7904
        },
        {
            "buffer" : 0,
            "byteLength" : 192,
            "byteOffset" : 8192
        },
        {
            "buffer" : 0,
            "byteLength" : 288,
            "byteOffset" : 8384
        },
        {
            "buffer" : 0,
            "byteLength" : 288,
            "byteOffset" : 8672
        },
        {
            "buffer" : 0,
            "byteLength" : 192,
            "byteOffset" : 8960
        },
        {
            "buffer" : 0,
            "byteLength" : 288,
            "byteOffset" : 9152
        },
        {
            "buffer" : 0,
            "byteLength" : 288,
            "byteOffset" : 9440
        },
        {
            "buffer" : 0,
            "byteLength" : 192,
            "byteOffset" : 9728
        },
        {
            "buffer" : 0,
            "byteLength" : 288,
            "byteOffset" : 9920
        },
        {
            "buffer" : 0,
            "byteLength" : 288,
            "byteOffset" : 10208
        },
        {
            "buffer" : 0,
            "byteLength" : 192,
            "byteOffset" : 10496
        }
    ],
    "buffers" : [
        {
            "byteLength" : 10688,
            "uri" : "data:application/octet-stream;base64,"
        }
    ]
}
